# xmcd
#
# Track frame offsets:
#	150
#	11093
#	22803
#	39086
#	60816
#	95335
#	98661
#	115338
#	136448
#	166487
#	182462
#	200109
#	217053
#	226672
#	238267
#	256222
#	277712
#	293514
#	297879
#	304487
#	323303
#
# Disc length: 4456 seconds
#
# Revision: 0
# Processed by: cddbd v1.5.2PL0 Copyright (c) Steve Scherf et al.
# Submitted via: EZCDAudioConverter 1.3.4.1
#
DISCID=15116615
DTITLE=Moody Blues - Timeless Flight 1/4
DYEAR=1900
DGENRE=
TTITLE0=Love And Beauty
TTITLE1=Dawn Is A Feeling
TTITLE2=Peak Hour
TTITLE3=Tuesday Afternoon
TTITLE4=The Night: Nights In White Satin
TTITLE5=Departure
TTITLE6=Ride My See Saw
TTITLE7=The Actor
TTITLE8=Legend Of A Mind
TTITLE9=Voices In The Sky
TTITLE10=What Am I Doing Here?
TTITLE11=A Simple Game
TTITLE12=In The Beginning
TTITLE13=Lovely To See You
TTITLE14=Dear Diary
TTITLE15=Never Comes The Day
TTITLE16=Are You Sitting Comfortably
TTITLE17=The Dream
TTITLE18=Have You Heard (Part 1)
TTITLE19=The Voyage
TTITLE20=Have You Heard (Part 2)
EXTD=
EXTT0=
EXTT1=
EXTT2=
EXTT3=
EXTT4=
EXTT5=
EXTT6=
EXTT7=
EXTT8=
EXTT9=
EXTT10=
EXTT11=
EXTT12=
EXTT13=
EXTT14=
EXTT15=
EXTT16=
EXTT17=
EXTT18=
EXTT19=
EXTT20=
PLAYORDER=
